<?xml version="1.0" standalone="no"?><!DOCTYPE svg PUBLIC "-//W3C//DTD SVG 1.1//EN" "http://www.w3.org/Graphics/SVG/1.1/DTD/svg11.dtd"><svg t="1689751718833" class="icon" viewBox="0 0 1024 1024" version="1.1" xmlns="http://www.w3.org/2000/svg" p-id="10542" xmlns:xlink="http://www.w3.org/1999/xlink" width="200" height="200"><path d="M890.6 576c-17.7 0-32-14.3-32-32V328.1c0-17.7 14.3-32 32-32s32 14.3 32 32V544c0 17.7-14.3 32-32 32z" fill="#cdcdcd" opacity=".5" p-id="10543"></path><path d="M950.2 331.5L538.9 527.3c-17.4 8.3-37.7 8.3-55.1 0l-410-195.9c-12.2-5.8-12.1-23.1 0-28.9L484 108.3c17.3-8.2 37.4-8.2 54.7 0l411.4 194.3c12.3 5.7 12.3 23.1 0.1 28.9z" fill="#cdcdcd" p-id="10544"></path><path d="M538.9 589.9c-17.4 8.3-37.7 8.3-55.1 0l-200-95.5c-11.6-5.5-25.2 1.1-28.1 13.6l-56.9 247.5c-4.3 18.7 5.3 37.9 23 45.6l264 115.5c16.4 7.2 34.9 7.2 51.3 0l264-115.5c17.6-7.7 27.3-26.9 23-45.6l-56.8-247.3c-2.9-12.5-16.5-19.1-28.1-13.6l-200.3 95.3z" fill="#cdcdcd" p-id="10545"></path></svg>